# xmcd
#
# Track frame offsets:
#	150
#	21838
#	31863
#	48199
#	66043
#	77889
#	88576
#	107285
#	127606
#	142025
#	155714
#	169737
#	184442
#	197359
#	213855
#	229827
#	243174
#	258323
#	273555
#	285309
#
# Disc length: 4000 seconds
#
# Revision: 1
# Processed by: cddbd v1.5.1PL0 Copyright (c) Steve Scherf et al.
# Submitted via: audiograbber 1.83.01
#
DISCID=080f9e14
DTITLE=Foster and Allen - Back Home Again
DYEAR=2005
DGENRE=Celtic
TTITLE0=Foster and Allen - Back Home Again
TTITLE1=Foster and Allen - Try To Remember
TTITLE2=Foster and Allen - A Mother's Way
TTITLE3=Foster and Allen - My Father's House
TTITLE4=Foster and Allen - Bless This House
TTITLE5=Foster and Allen - My Grandfather's Clock
TTITLE6=Foster and Allen - Cottage In The Country
TTITLE7=Foster and Allen - Silver Threads Among The Gold
TTITLE8=Foster and Allen - Sitting Alone In An Old Rocking Chair
TTITLE9=Foster and Allen - Between The Two Of Them
TTITLE10=Foster and Allen - A Mother's Love's A Blessing
TTITLE11=Foster and Allen - Take Me Home Country Roads
TTITLE12=Foster and Allen - The Ring Your Mother Wore
TTITLE13=Foster and Allen - The Old Button Box
TTITLE14=Foster and Allen - Far Away A Light Is Burning
TTITLE15=Foster and Allen - Scarlet Ribbons
TTITLE16=Foster and Allen - My Uncle Mike
TTITLE17=Foster and Allen - The Green, Green Grass Of Home
TTITLE18=Foster and Allen - The Old House
TTITLE19=Foster and Allen - What A Wonderful World
EXTD=
EXTT0=
EXTT1=
EXTT2=
EXTT3=
EXTT4=
EXTT5=
EXTT6=
EXTT7=
EXTT8=
EXTT9=
EXTT10=
EXTT11=
EXTT12=
EXTT13=
EXTT14=
EXTT15=
EXTT16=
EXTT17=
EXTT18=
EXTT19=
PLAYORDER=
